<?xml version="1.0" encoding="UTF-8" standalone="no"?>
<!-- Generator: Adobe Illustrator 16.2.1, SVG Export Plug-In . SVG Version: 6.00 Build 0)  -->

<svg
   xmlns:dc="http://purl.org/dc/elements/1.1/"
   xmlns:cc="http://creativecommons.org/ns#"
   xmlns:rdf="http://www.w3.org/1999/02/22-rdf-syntax-ns#"
   xmlns:svg="http://www.w3.org/2000/svg"
   xmlns="http://www.w3.org/2000/svg"
   xmlns:sodipodi="http://sodipodi.sourceforge.net/DTD/sodipodi-0.dtd"
   xmlns:inkscape="http://www.inkscape.org/namespaces/inkscape"
   version="1.1"
   id="Layer_1"
   x="0px"
   y="0px"
   width="512px"
   height="512px"
   viewBox="0 0 512 512"
   enable-background="new 0 0 512 512"
   xml:space="preserve"
   inkscape:version="0.91 r13725"
   sodipodi:docname="ios-wineglass-outline.svg"><metadata
     id="metadata9"><rdf:RDF><cc:Work
         rdf:about=""><dc:format>image/svg+xml</dc:format><dc:type
           rdf:resource="http://purl.org/dc/dcmitype/StillImage" /><dc:title></dc:title></cc:Work></rdf:RDF></metadata><defs
     id="defs7" /><sodipodi:namedview
     pagecolor="#ffffff"
     bordercolor="#666666"
     borderopacity="1"
     objecttolerance="10"
     gridtolerance="10"
     guidetolerance="10"
     inkscape:pageopacity="0"
     inkscape:pageshadow="2"
     inkscape:window-width="1920"
     inkscape:window-height="1017"
     id="namedview5"
     showgrid="false"
     inkscape:zoom="1.3037281"
     inkscape:cx="120.76998"
     inkscape:cy="239.4409"
     inkscape:window-x="-8"
     inkscape:window-y="-8"
     inkscape:window-maximized="1"
     inkscape:current-layer="Layer_1" /><path
     d="m 264,308.988 c 0,-21.975 20.458,-38.674 40.247,-54.824 7.907,-6.453 15.37,-12.547 21.519,-18.962 C 352.313,207.505 352,183.458 352,164.144 L 352,160 C 352,115.75 321.184,35.442 319.98,32 L 256,32 192,32 c -1.203,3.442 -32,83.5 -32,128 l 0,4.144 c 0,19.273 -0.323,43.361 26.225,71.059 6.148,6.415 13.617,12.509 21.523,18.962 19.789,16.15 40.252,32.85 40.252,54.824 l 0,155.011 -72,0 0,16 80,0 80,0 0,-16 -72,0 z M 202.729,48 256,48 l 53.251,0 c 5.359,15.99 21.35645,78.712 26.68345,112 l -159.92181,0 C 181.33964,126.712 197.37,63.99 202.729,48 Z M 256,273.416 c -2.968,0 -5.248,-0.92 -7.17,-2.754 10e-4,0.009 0.003,0.018 0.005,0.026 -8.804,-10.807 -20.234,-20.158 -30.971,-28.92 -7.517,-6.135 -14.617,-11.929 -20.089,-17.637 -22.054,-23.008 -21.928,-40.916 -21.795,-59.875 0.01,-1.428 -0.068,-2.849 0.02,-4.255 l 159.98,0 c 0.088,1.406 0.01,2.828 0.021,4.255 0.133,18.959 0.259,36.867 -21.795,59.875 -5.472,5.708 -12.57,11.502 -20.087,17.637 -10.737,8.762 -22.165,18.114 -30.969,28.92 0.002,-0.009 0.009,-0.018 0.01,-0.026 -1.922,1.834 -4.16,2.754 -7.16,2.754 z"
     id="path3"
     inkscape:connector-curvature="0"
     sodipodi:nodetypes="sscsscccssccscccccccsccccccsccccccccccccs" /></svg>