<?xml version="1.0" encoding="UTF-8" standalone="no"?>
<svg
   xmlns:dc="http://purl.org/dc/elements/1.1/"
   xmlns:cc="http://creativecommons.org/ns#"
   xmlns:rdf="http://www.w3.org/1999/02/22-rdf-syntax-ns#"
   xmlns:svg="http://www.w3.org/2000/svg"
   xmlns="http://www.w3.org/2000/svg"
   viewBox="0 0 735.62646 843.30701"
   height="843.30701"
   width="735.62646"
   version="1.1"
   id="svg3353">
  <metadata
     id="metadata3359">
    <rdf:RDF>
      <cc:Work
         rdf:about="">
        <dc:format>image/svg+xml</dc:format>
        <dc:type
           rdf:resource="http://purl.org/dc/dcmitype/StillImage" />
        <dc:title></dc:title>
      </cc:Work>
    </rdf:RDF>
  </metadata>
  <defs
     id="defs3357" />
  <path
     id="path3363"
     d="m 3.5948914,841.30699 c 0,-1.1 -0.45,-2 -1,-2 -0.55,0 -1,0.45 -1,1 0,0.55 -0.51974,1 -1.15497996,1 -0.71252,0 -0.55083,-0.67041 0.42208,-1.75 0.86739996,-0.9625 1.89354996,-3.1 2.28033996,-4.75 0.38679,-1.65 2.13664,-4.575 3.88854,-6.5 1.7519,-1.925 4.4842096,-5.3 6.0717896,-7.5 1.58758,-2.2 3.16062,-4.225 3.49565,-4.5 2.28342,-1.87428 7.84522,-10.4359 7.32558,-11.2767 -0.35399,-0.57278 -0.15453,-0.73351 0.44808,-0.36108 1.16178,0.71802 4.44121,-3.20002 3.69247,-4.41151 -0.62998,-1.01932 13.00419,-29.39418 16.03033,-33.36165 1.37507,-1.80281 2.50013,-3.57826 2.50013,-3.94544 0,-0.62927 6.05654,-10.27494 12.02032,-19.14362 5.07213,-7.54271 21.18135,-36.65149 23.66196,-42.75633 1.3641,-3.35706 4.63696,-10.41023 7.27303,-15.67371 2.63606,-5.26348 10.29934,-21.49496 17.029519,-36.06996 6.73016,-14.575 15.08936,-31.9 18.57596,-38.5 3.4865,-6.6 7.9083,-16.5 9.8262,-22 1.9178,-5.5 5.6016,-14.275 8.1863,-19.5 5.1513,-10.41374 16.9035,-39.65958 19.0257,-47.34671 0.736,-2.66568 2.5161,-6.94068 3.9558,-9.5 1.4398,-2.55931 3.7316,-8.25329 5.0929,-12.65329 1.3613,-4.4 3.3178,-10.73166 4.3478,-14.07035 1.03,-3.3387 7.803,-19.9887 15.051,-37 8.1944,-19.23248 15.8112,-39.06066 20.1404,-52.42965 12.2868,-37.94327 52.6963,-157.7562 54.638,-162 0.6292,-1.375 6.1263,-19.375 12.2158,-40 6.0896,-20.625 13.945,-46.725 17.4565,-58 3.5115,-11.275 8.6916,-28.375 11.5113,-37.999992 4.7408,-16.182333 26.8373,-86.759748 27.5773,-88.083269 0.1794,-0.320798 1.6407,-0.39034 3.2473,-0.154538 2.744,0.402737 2.8699,0.619989 2.0762,3.583269 -0.4647,1.734996 -1.7859,8.104539 -2.936,14.154539 -1.1501,6.05 -3.3791,15.725 -4.9534,21.5 -1.5743,5.775 -4.0853,16.124996 -5.5799,22.999996 -3.6749,16.90395 -14.8731,58.050075 -24.0858,88.499995 -4.1601,13.75 -9.9509,33.3909 -12.8684,43.64645 -2.9175,10.25554 -5.8551,19.67515 -6.528,20.93246 -1.2288,2.2959 -23.295,67.86013 -29.0302,86.25575 -1.6864,5.40906 -3.079,11.25906 -3.0947,13 -0.016,1.74094 -1.5218,8.34034 -3.3471,14.66534 -1.8252,6.325 -3.6253,13.075 -4.0001,15 -1.0797,5.54559 -36.0326,96.25311 -52.8768,137.22265 -18.5762,45.18225 -26.9404,66.79106 -34.6613,89.54734 -5.9756,17.61203 -11.0328,28.55709 -16.5196,35.75241 -1.8366,2.40848 -3.7742,6.82392 -4.8181,10.97943 -1.7968,7.15331 -8.5341,24.39653 -13.176,33.72211 -4.5675,9.1763 -16.75463,30.78866 -17.14274,30.40056 -0.20484,-0.20484 0.60395,-2.11665 1.7973,-4.24847 l 2.16973,-3.87603 -2.5839,3 c -2.69281,3.12644 -5.701209,8.67285 -7.746659,14.28206 -0.65826,1.80514 -1.41131,3.06759 -1.67345,2.80545 -0.62613,-0.62613 -5.25417,4.89038 -5.25417,6.26284 0,0.5839 -1.41693,3.44394 -3.14874,6.35564 -1.73181,2.91171 -5.50988,10.04238 -8.39572,15.84593 -5.6004,11.26268 -9.88218,18.18811 -10.72441,17.34588 -0.28405,-0.28406 -1.98459,2.09774 -3.77898,5.29287 -1.79439,3.19513 -3.90492,6.56091 -4.69009,7.47951 -1.79871,2.1044 -4.89821,7.63145 -11.40072,20.32982 -2.81641,5.5 -6.41237,11.88108 -7.99104,14.18018 -1.57866,2.29909 -2.8703,4.64576 -2.8703,5.21481 0,0.56905 -0.80531,1.46563 -1.78958,1.9924 -0.98427,0.52676 -2.39003,2.07969 -3.1239,3.45095 -0.73388,1.37126 -2.09937,2.69326 -3.03443,2.93779 -0.93506,0.24452 -3.61972,3.31992 -5.9659,6.83423 -5.01176,7.50701 -8.0403,11.46797 -13.8361996,18.09613 -2.3375,2.67315 -4.25,5.52025 -4.25,6.32689 0,0.80664 -0.45,1.46662 -1,1.46662 -0.55,0 -1,-0.9 -1,-2 z M 115.97649,666.75505 c 0.3415,-0.88992 0.1738,-1.29132 -0.393,-0.94098 -0.5437,0.33602 -0.9886,1.0344 -0.9886,1.55194 0,1.43843 0.7168,1.12146 1.3816,-0.61096 z M 25.594901,818.15491 c 0,-1.3838 3.25014,-6.84792 4.07324,-6.84792 1.30641,0 1.22482,0.20744 -1.57324,4 -1.375,1.86371 -2.5,3.14527 -2.5,2.84792 z m 41,-64.7889 c 0,-0.51754 0.44485,-1.21592 0.98855,-1.55194 0.56686,-0.35034 0.7345,0.0511 0.39301,0.94098 -0.66479,1.73242 -1.38156,2.04939 -1.38156,0.61096 z M 309.32809,619.53341 c -0.8437,-0.94953 -2.2574,-3.30142 -3.1415,-5.22642 -0.8841,-1.925 -2.7299,-5.03047 -4.1017,-6.90104 -1.3718,-1.87057 -2.9795,-5.24557 -3.5727,-7.5 -0.5931,-2.25443 -1.9368,-5.57818 -2.986,-7.38611 -2.3083,-3.97742 -5.314,-15.43321 -7.3428,-27.98572 -0.8243,-5.10008 -1.7943,-9.75109 -2.1555,-10.33557 -0.3613,-0.58449 -0.8204,-5.1867 -1.0204,-10.22714 -0.6786,-17.10844 -2.0618,-27.93471 -3.7241,-29.15024 -0.854,-0.62446 -2.3955,-3.35811 -3.4256,-6.07478 -1.7105,-4.51121 -1.7919,-6.36975 -0.9384,-21.4394 0.514,-9.075 0.9888,-24.15 1.055,-33.5 0.1015,-14.31697 -0.1702,-17.75359 -1.7217,-21.77486 -1.8098,-4.69094 -1.8067,-4.84661 0.1775,-8.85709 1.1109,-2.24522 1.7647,-4.74677 1.4531,-5.55898 -0.4421,-1.15204 -0.7392,-1.19761 -1.3513,-0.20722 -0.6316,1.02194 -1.0921,1.01441 -2.3609,-0.0386 -0.8669,-0.71948 -1.6047,-0.91554 -1.6396,-0.43569 -0.035,0.47984 -0.4741,-0.15021 -0.9761,-1.40012 -0.6857,-1.70736 -0.2865,-3.64173 1.6053,-7.77763 1.385,-3.02778 2.2047,-6.01216 1.8216,-6.63194 -0.4009,-0.64867 -0.2504,-0.85127 0.3545,-0.47741 0.6815,0.4212 1.3006,-2.17238 1.7615,-7.37928 0.7518,-8.49246 2.3861,-12.58122 8.8852,-22.22872 1.4515,-2.15456 1.7289,-3.81574 1.2524,-7.5 -0.7029,-5.43546 1.5143,-13.87059 2.7813,-10.58133 0.6734,1.74802 0.766,1.75298 1.6991,0.0909 0.5428,-0.96686 0.7531,-2.13621 0.4673,-2.59856 -0.2857,-0.46235 0.3649,-1.78997 1.4459,-2.95026 1.081,-1.1603 1.9654,-2.58882 1.9654,-3.1745 0,-0.59284 1.1381,-0.31916 2.5675,0.61741 2.5619,1.67867 2.5797,1.66935 8.25,-4.33483 7.3727,-7.80681 15.196,-13.83114 19.9182,-15.33798 2.0704,-0.66065 6.0775,-2.50245 8.9046,-4.09291 5.8854,-3.31088 16.1024,-4.99804 28.8597,-4.76571 l 8,0.14569 4.2771,4.62479 c 2.3524,2.54363 5.2282,6.58518 6.3907,8.98122 2.3091,4.75917 2.3991,3.16223 -1.6347,28.99583 -0.8329,5.33362 -1.4121,15.4315 -1.3481,23.5 0.062,7.78125 -0.4107,18.19773 -1.0499,23.14773 -2.4966,19.33447 -6.5298,70.49187 -7.7864,98.76148 -0.7263,16.342 0.599,21.82742 5.7036,23.60691 6.0647,2.11418 1.7625,4.96665 -4.8183,3.19463 -6.9423,-1.86939 -9.2591,-5.63633 -11.7241,-19.06302 -1.516,-8.25787 -1.652,-13.0928 -1.0399,-36.97841 0.3873,-15.11313 1.0775,-28.17599 1.5337,-29.02859 0.4563,-0.85259 1.6252,-10.45946 2.5974,-21.3486 1.3174,-14.75525 1.4757,-19.97892 0.6212,-20.50702 -1.7385,-1.07446 -1.6753,-16.90615 0.1223,-30.63738 3.8695,-29.5574 4.814,-40.60399 3.5969,-42.07047 -0.7947,-0.95747 -3.2294,-1.42948 -7.374,-1.42948 -5.0679,0 -7.4912,0.64222 -13.3917,3.54908 -3.9623,1.95199 -8.8093,3.69312 -10.7713,3.86917 -2.6827,0.24072 -4.0071,1.04346 -5.3414,3.23753 -2.2716,3.73548 -16.4562,16.60353 -16.8938,15.32582 -0.5152,-1.50447 -3.9387,0.71643 -4.6736,3.03186 -0.3518,1.10857 -0.9663,1.81374 -1.3654,1.56704 -1.7361,-1.07297 -2.8079,1.63929 -5.0612,12.80816 -2.0139,9.98205 -2.3631,14.39228 -2.1773,27.5 0.1764,12.44945 -0.104,16.38823 -1.3846,19.44709 -1.2389,2.9595 -1.3723,4.55862 -0.584,7 0.6265,1.94015 0.689,4.60285 0.1616,6.88298 -0.473,2.0453 -0.4998,6.9953 -0.06,11 0.4403,4.0047 0.4269,7.73259 -0.03,8.28421 -0.4587,0.55414 -0.2118,2.12035 0.5517,3.5 1.8171,3.28321 1.7934,8.52376 -0.084,18.5412 -1.4585,7.78372 -1.431,8.67609 0.5415,17.57793 1.1428,5.15786 2.2911,14.32793 2.5517,20.37793 0.2606,6.05 0.8469,13.91914 1.303,17.48698 0.456,3.56785 0.6296,7.25016 0.3857,8.18293 -0.244,0.93277 0.6818,7.68863 2.0572,15.01302 3.5518,18.91435 5.5294,35.14297 6.2687,51.44255 0.6552,14.44509 0.1336,16.94512 -2.838,13.60094 z m 148.7668,-45.80126 c -13.9822,-7.57613 -20.5505,-18.0718 -23.5776,-37.67516 -0.6583,-4.2625 -1.5359,-7.75 -1.9503,-7.75 -0.4144,0 -1.0538,-4.8375 -1.4209,-10.75 -0.8051,-12.96728 1.9456,-46.09267 6.4953,-78.22019 1.6768,-11.8414 3.2525,-24.22981 3.5013,-27.52981 0.4576,-6.06882 2.0862,-21.65789 2.7991,-26.79436 0.2133,-1.53689 1.4044,-3.87649 2.647,-5.19911 1.3776,-1.46646 2.013,-3.04621 1.6283,-4.04871 -1.726,-4.49779 4.822,-28.48701 9.0087,-33.00458 1.303,-1.40596 2.3691,-3.55876 2.3691,-4.784 0,-1.22525 0.9,-2.8764 2,-3.66924 1.1,-0.79284 2,-2.26452 2,-3.27042 0,-1.00589 0.6364,-3.0596 1.4143,-4.56379 0.7778,-1.5042 1.7227,-4.37921 2.0997,-6.38892 0.6203,-3.30602 6.2236,-13.28244 8.2571,-14.70112 0.4539,-0.31666 1.8192,-1.99963 3.0341,-3.73992 2.5675,-3.6781 9.9704,-7.59211 13.3558,-7.06145 3.9196,0.61438 10.0195,3.62455 9.3945,4.63591 -0.3237,0.52371 0.5439,2.62093 1.928,4.6605 1.3841,2.03957 2.5165,4.7337 2.5165,5.98697 0,1.25327 0.3093,3.10297 0.6872,4.11045 0.605,1.61251 0.4853,1.66749 -1,0.45935 -1.3996,-1.13855 -1.6872,-1.14324 -1.6872,-0.0275 0,1.93046 -2.4508,-1.9052 -3.8561,-6.03513 -1.8432,-5.41676 -3.7734,-7.03158 -7.2223,-6.04243 -7.0795,2.03035 -12.4482,8.76958 -17.7057,22.22565 -3.3494,8.57234 -15.3816,50.35168 -16.9202,58.75185 -0.2518,1.375 -0.7241,3.175 -1.0494,4 -0.3253,0.825 -0.7003,4.1075 -0.8333,7.29445 -0.133,3.18695 -0.7245,6.37595 -1.3143,7.08667 -0.6419,0.77345 -0.8742,3.86686 -0.5786,7.70554 0.6476,8.40944 0.6437,7.82872 0.082,12.36132 -0.2689,2.17138 0.01,5.80941 0.6174,8.08451 0.8916,3.33339 0.7753,5.45465 -0.5989,10.92543 -0.9379,3.73389 -1.9359,11.79586 -2.2178,17.91549 -0.2818,6.11962 -0.8993,12.70159 -1.3721,14.62659 -1.0924,4.44707 -2.1237,18.55436 -1.9739,27 0.063,3.575 0.036,11.10141 -0.062,16.72535 -0.1577,9.11263 0.1746,11.28903 3.0533,20 6.1333,18.55974 9.3383,22.62584 15.3931,19.5293 4.9227,-2.51752 13.4102,-11.19861 21.7584,-22.25465 8.2658,-10.94695 14.909,-23.57585 24.9011,-47.33792 5.7977,-13.78724 7.2317,-14.48631 4.0299,-1.96451 -1.0973,4.29134 -2.2485,9.37743 -2.5582,11.30243 -0.7268,4.51687 -7.7603,26.79164 -12.3147,39 -11.3995,30.55697 -18.9436,39.80212 -33.2246,40.71617 -5.6693,0.36286 -7.1955,0.0597 -11.5339,-2.29101 z m 29.986,-96.67516 c -4.8593,-5.58248 -7.6525,-14.08529 -7.4901,-22.80049 0.061,-3.29373 -0.5029,-5.22699 -2.0432,-7 -1.9142,-2.20337 -2.0476,-3.10267 -1.3275,-8.94951 0.7897,-6.41197 0.7928,-11.63117 0.011,-17.5 -0.2199,-1.65 -0.453,-3.95114 -0.5178,-5.11364 -0.2041,-3.6609 -4.739,-7.2712 -8.6738,-6.90549 -1.8943,0.17605 -3.4441,-0.0851 -3.4441,-0.58039 0,-0.49526 -0.6634,-0.90048 -1.4743,-0.90048 -0.8109,0 -2.1498,-1.30613 -2.9753,-2.9025 -1.3199,-2.55241 -1.323,-2.97079 -0.026,-3.46862 0.8114,-0.31136 1.4753,-1.1765 1.4753,-1.92252 0,-0.83849 1.2409,-1.40324 3.25,-1.47906 6.6631,-0.25144 10.3127,-0.92158 12.5,-2.29531 1.2375,-0.77719 2.25,-1.69244 2.25,-2.03386 0,-0.34143 1.0852,-0.41334 2.4115,-0.1598 1.725,0.32976 2.7313,-0.13672 3.5352,-1.63867 0.618,-1.15481 1.6803,-2.09966 2.3606,-2.09966 0.6804,0 2.802,-1.28093 4.7148,-2.84651 4.7312,-3.87232 7.3542,-5.15349 10.551,-5.15349 2.6982,0 2.7034,0.0143 2.1629,5.97455 -0.5975,6.5899 -3.3025,10.98799 -7.832,12.7345 -1.7683,0.68182 -2.7966,2.00371 -3.225,4.14596 -0.4569,2.28419 -1.1833,3.14499 -2.654,3.14499 -1.7946,0 -2.0493,0.7111 -2.2381,6.25 -0.4454,13.06465 -0.3679,16.89095 0.3513,17.33542 0.4083,0.25233 0.2674,1.82113 -0.313,3.48622 -0.5805,1.66509 -0.7407,4.46764 -0.3562,6.22789 0.3846,1.76026 0.913,5.90047 1.1743,9.20047 0.2613,3.3 0.8984,8.44515 1.4159,11.43366 1.477,8.53076 0.9737,18.06634 -0.9536,18.06634 -0.3636,0 -1.5425,-1.0125 -2.6196,-2.25 z m -86.3062,-18.83368 c -0.7157,-1.14603 -1.9259,-1.84399 -2.6893,-1.55103 -0.8043,0.30863 -1.6456,-0.27851 -2.0002,-1.39601 -0.3367,-1.06076 -0.9223,-1.83214 -1.3012,-1.71417 -1.7663,0.54977 -6.0439,-4.6561 -5.9697,-7.2651 0.043,-1.52434 -0.8883,-4.3363 -2.0703,-6.2488 -2.2797,-3.68863 -2.8028,-6.74121 -1.1552,-6.74121 0.5545,0 0.7958,-1.54714 0.5457,-3.5 -0.2464,-1.925 -0.01,-3.5 0.5252,-3.5 1.1393,0 0.2304,-4.20918 -1.7131,-7.93335 -0.7366,-1.41166 -1.3421,-5.5158 -1.3455,-9.12031 -0.01,-8.96686 3.3323,-15.6271 10.5853,-21.10314 l 5.3564,-4.04414 9.0631,0.35047 c 5.1664,0.19978 9.3697,0.82793 9.7761,1.46094 0.9366,1.45895 6.8152,4.45393 7.4656,3.80353 0.2784,-0.27842 1.9703,1.34236 3.7598,3.60174 3.252,4.10599 3.2533,4.11241 2.7364,13.29612 -0.4076,7.24211 -1.2954,11.30612 -4.1919,19.18814 -2.0211,5.5 -4.2465,12.7 -4.9454,16 -1.1109,5.2456 -1.6379,6.12573 -4.1911,7 -1.678,0.57455 -3.0653,1.8509 -3.2607,3 -0.4784,2.81181 -3.1105,5.54354 -6.8777,7.13802 -4.4731,1.89328 -6.5868,1.70501 -8.1023,-0.7217 z m 3.4974,-17.40517 c 3.2015,-1.59713 9.0229,-11.5694 7.8559,-13.45758 -0.3581,-0.57946 -0.1221,-1.05357 0.5245,-1.05357 0.73,0 0.9851,-0.99614 0.6731,-2.62843 -0.3048,-1.59457 0.451,-4.71115 1.9217,-7.92346 2.5596,-5.59093 2.4813,-8.11785 -0.4323,-13.94811 -1.9079,-3.81794 -2.9373,-4.46585 -7.1249,-4.48469 -5.6755,-0.0255 -10.2424,5.77028 -14.2669,18.10603 -2.4468,7.49982 -2.9972,10.31345 -2.0783,10.62353 0.6875,0.23199 1.25,1.63409 1.25,3.11578 0,1.74166 1.0605,3.62456 3,5.32644 1.8837,1.65288 3,3.5963 3,5.22268 0,2.97634 1.3815,3.24436 5.6772,1.10138 z m 120.9311,6.31752 c -13.63,-18.00796 -13.962,-18.9842 -14.2218,-41.81586 -0.1486,-13.05602 -0.7341,-21.06676 -1.9929,-27.26775 -1.4642,-7.21236 -1.5672,-9.37596 -0.577,-12.1143 0.9868,-2.72892 0.9313,-3.98983 -0.3056,-6.95013 -2.2284,-5.33338 -1.7417,-20.55927 0.6108,-19.10538 0.483,0.29853 0.9157,0.17873 0.9615,-0.26623 0.046,-0.44496 0.3069,-1.93402 0.58,-3.30902 0.2732,-1.375 0.653,-5.65 0.8441,-9.5 0.1911,-3.85 0.7965,-8.74879 1.3454,-10.8862 0.6152,-2.39565 0.6652,-5.93115 0.1303,-9.21787 -0.9161,-5.62877 -0.2781,-12.69629 1.0709,-11.86257 0.4393,0.2715 1.1017,-1.93118 1.472,-4.89486 0.604,-4.83446 0.92,-5.3885 3.0736,-5.3885 2.5656,0 2.6673,0.28558 2.812,7.90063 0.049,2.59514 -0.3182,4.40106 -0.8315,4.08596 -0.506,-0.31057 -0.6679,0.0716 -0.3598,0.84937 0.3082,0.77772 1.3528,3.37472 2.3214,5.77111 1.5702,3.88467 1.6401,5.51101 0.6444,15 -1.1074,10.55449 -0.6312,23.14293 0.8755,23.14293 1.0546,0 9.0805,-11.56952 14.5192,-20.92979 3.2805,-5.6459 4.3948,-8.61003 4.353,-11.57932 -0.1352,-9.58851 0.6526,-18.61955 1.6814,-19.27761 2.0466,-1.30895 3.168,-6.41968 4.0532,-18.47139 0.2736,-3.72559 0.9081,-6.50362 1.414,-6.19098 0.5047,0.31192 0.9176,-1.03161 0.9176,-2.98562 0,-2.97236 0.3225,-3.50352 1.9742,-3.25145 2.81,0.42884 3.0599,0.92103 2.1509,4.23643 -0.5536,2.01922 -0.3323,3.96402 0.7018,6.16505 1.2357,2.63044 1.2979,3.92489 0.3418,7.11602 -0.6428,2.14539 -1.1797,7.67349 -1.1931,12.28468 -0.013,4.61119 -0.478,10.35097 -1.0323,12.75506 -1.5349,6.65734 -2.1729,29.60168 -2.0242,72.80327 0.086,24.88456 -0.2259,39.39722 -0.8538,39.78532 -1.5597,0.96395 -4.5876,-6.18642 -6.5465,-15.45967 -1.3183,-6.24046 -1.7904,-12.88616 -1.776,-25 0.013,-10.59889 -0.3765,-16.9917 -1.0877,-17.87483 -0.6089,-0.75615 -1.078,-4.69191 -1.0424,-8.74613 l 0.065,-7.3713 -4.0887,5.85685 c -2.2488,3.22127 -6.2476,8.69809 -8.8863,12.1707 l -4.7975,6.31384 0.5846,9.57543 c 0.5503,9.0121 2.0868,22.89615 3.0716,27.75551 0.243,1.19904 1.0037,2.77404 1.6904,3.5 2.8675,3.03155 4.7933,13.07472 6.5332,34.06993 0.9913,11.9625 1.5578,21.72698 1.2588,21.69885 -0.2989,-0.0281 -4.9948,-5.93221 -10.4353,-13.12018 z m 45.4209,-32.05613 c -0.016,-0.9501 -1.4027,-4.26616 -3.0814,-7.36901 -2.3469,-4.33786 -3.3781,-8.09822 -4.4625,-16.27254 -1.6903,-12.74098 -3.6725,-32.65227 -3.5969,-36.13099 0.03,-1.375 0,-3.4 -0.072,-4.5 -0.3964,-6.29271 0.095,-10.43692 1.4913,-12.57933 1.0175,-1.56124 1.8263,-6.05981 2.2778,-12.67067 0.3851,-5.6375 1.0858,-10.25 1.5571,-10.25 0.4714,0 0.8571,-1.35 0.8571,-3 0,-1.85804 0.516,-3 1.3556,-3 1.8782,0 2.8327,13.64698 1.4628,20.9157 -2.0164,10.69997 1.79,57.92967 4.6273,57.41555 1.3469,-0.24406 8.2127,-16.57977 10.5737,-25.15778 1.5153,-5.50572 1.7963,-8.23948 1.1305,-11 -1.2535,-5.19726 -1.3075,-13.27871 -0.098,-14.73551 0.5624,-0.67767 1.1785,-4.76594 1.369,-9.08504 0.1906,-4.31911 0.3989,-8.64042 0.463,-9.60292 0.1775,-2.66654 3.1165,-2.14787 3.1165,0.55 0,1.265 0.5163,2.81631 1.1473,3.44735 0.7388,0.73875 1.269,6.95309 1.489,17.45 0.4605,21.98197 0.9364,29.56017 2.154,34.30265 0.5648,2.2 1.3063,6.25 1.6477,9 0.3415,2.75 1.3539,7.82937 2.25,11.28749 l 1.6291,6.2875 4.5915,-0.6657 4.5914,-0.66569 -2.2856,2.48059 c -2.854,3.09733 -9.7925,5.37088 -11.6603,3.82073 -1.6141,-1.3396 -4.2047,-10.63338 -5.1135,-18.34497 -0.7239,-6.14255 -3.5999,-10.91716 -4.2939,-7.12854 -1.7307,9.44856 -15.0294,40.41454 -15.1175,35.20113 z m 90.2939,-7.02254 c -8.1347,-8.35981 -13.2699,-20.0568 -17.6708,-40.25 -0.8391,-3.85 -1.7985,-9.025 -2.1321,-11.5 -1.371,-10.17147 -3.9239,-18.73308 -7.0073,-23.5 -1.7788,-2.75 -3.7994,-6.8 -4.4902,-9 -2.7306,-8.69616 -12.4074,-25.64503 -18.1655,-31.81687 l -5.7686,-6.18313 -0.044,3.13953 c -0.024,1.72674 0.6,6.67674 1.3875,11 0.7875,4.32326 1.7247,13.03547 2.0827,19.36047 0.358,6.325 1.0793,14.65 1.603,18.5 1.7529,12.88811 0.9482,41.5 -1.1672,41.5 -0.4353,0 -1.1041,-1.4625 -1.4863,-3.25 -0.3822,-1.7875 -1.043,-3.7 -1.4685,-4.25 -1.2274,-1.58681 -4.8868,-17.23956 -6.0784,-26 -0.5985,-4.4 -1.4014,-13.9877 -1.7843,-21.306 -0.3886,-7.42967 -1.1617,-13.61249 -1.7506,-14 -2.2597,-1.48704 -3.3822,-7.99462 -3.3822,-19.60803 0,-9.97269 -0.3345,-12.73968 -1.8912,-15.64412 -1.2768,-2.38232 -2.124,-6.76287 -2.6079,-13.48519 -0.3942,-5.47617 -1.3837,-11.39654 -2.1989,-13.15639 -0.8152,-1.75985 -1.1958,-3.66305 -0.8458,-4.22933 0.3499,-0.56628 0.1278,-1.97973 -0.4937,-3.141 -0.8409,-1.57132 -0.8389,-2.81422 0.01,-4.85905 0.626,-1.51121 1.2333,-5.97038 1.3497,-9.90927 l 0.2116,-7.16162 -2.6945,0 c -1.482,0 -3.3139,-0.61929 -4.0708,-1.37621 -0.7978,-0.79776 -2.9013,-1.25519 -5.0047,-1.0883 -3.382,0.26835 -3.613,0.10706 -3.3999,-2.37379 0.2103,-2.44864 0.5452,-2.6394 4.1833,-2.38313 2.1751,0.15321 5.8576,-0.2401 8.1834,-0.87402 5.785,-1.57673 10.308,0.59568 13.8602,6.65696 3.1234,5.32964 5.8585,21.11036 5.0651,29.22383 -0.2842,2.90694 -0.2576,6.8827 0.059,8.83502 l 0.576,3.54969 2.2606,-2.83503 c 1.2433,-1.55926 2.6705,-2.83502 3.1714,-2.83502 1.5816,0 6.3014,-5.73497 6.9314,-8.42206 0.3323,-1.41787 1.5306,-4.1172 2.6628,-5.99851 1.3349,-2.21816 2.203,-5.73338 2.4694,-10 0.2261,-3.61869 0.7989,-6.81986 1.273,-7.11371 0.4742,-0.29385 0.9926,-2.41079 1.1521,-4.70431 0.2116,-3.04204 0.6958,-4.10695 1.7901,-3.9368 3.1043,0.48273 3.7443,1.60359 3.0852,5.40385 -0.7407,4.27083 -0.7387,4.31775 0.4186,9.77154 1.2071,5.68847 1.1329,6.02761 -3.898,17.80619 -6.2944,14.73645 -9.0888,20.03536 -12.7876,24.24805 l -3.1855,3.62806 6.4336,6.51475 c 3.5385,3.58312 8.0627,8.06347 10.0538,9.95634 2.0818,1.97911 4.8164,6.28977 6.4352,10.1441 1.5482,3.68638 3.7952,8.28381 4.9934,10.21651 6.3568,10.25408 11.0734,24.32246 13.3121,39.70606 2.3212,15.9517 11.4693,51.08643 15.211,58.42081 1.0829,2.12252 1.6068,3.85913 1.1643,3.85913 -0.4424,0 -3.1033,-2.3625 -5.9131,-5.25 z m 11.6829,-32.23418 c -2.3106,-6.07731 -5.006,-18.1816 -5.006,-22.48039 0,-2.52334 0.4159,-8.17609 0.9241,-12.56166 0.5083,-4.38558 1.2194,-11.74498 1.5802,-16.35424 l 0.6559,-8.38048 -5.7494,0.47679 c -5.7193,0.47429 -5.7375,0.46713 -3.4693,-1.36953 1.254,-1.01547 3.2427,-1.91485 4.4193,-1.99862 1.1766,-0.0838 2.8142,-0.20178 3.6392,-0.26223 1.2758,-0.0935 1.4503,-2.27577 1.1678,-14.59769 -0.2798,-12.19886 0.1547,-17.76668 2.75,-35.24177 1.6952,-11.4147 3.0822,-21.20601 3.0822,-21.75847 0,-1.64179 -3.9967,1.33505 -4.0318,3.00302 -0.026,1.23745 -0.2691,1.19691 -1.3489,-0.22501 -0.7244,-0.95395 -1.5796,-1.47194 -1.9004,-1.15108 -0.3209,0.32085 -0.3155,-0.47364 0.012,-1.76555 0.3274,-1.2919 2.1302,-3.92391 4.0061,-5.84891 1.8759,-1.925 4.0319,-4.67528 4.7911,-6.11174 1.84,-3.48167 6.1504,-27.22583 7.8764,-43.38826 1.5298,-14.32499 2.3703,-17.23876 6.381,-22.12161 1.493,-1.81767 3.7526,-4.66101 5.0214,-6.31854 4.422,-5.77658 14.1675,-6.47663 20.1448,-1.44706 4.427,3.7251 5.7068,9.45702 3.6021,16.13371 -0.9108,2.88943 -2.1096,5.2535 -2.6639,5.2535 -0.5544,0 -0.6868,0.51953 -0.2944,1.15451 0.4466,0.72264 0.2738,0.88276 -0.4619,0.42803 -0.7482,-0.46239 -1.7077,0.54715 -2.6394,2.77711 -0.8051,1.92697 -1.9199,3.7854 -2.4772,4.12984 -0.5573,0.34444 -2.6765,4.08771 -4.7094,8.31838 -3.2409,6.74489 -5.1365,9.66403 -10.5404,16.23236 -2.5821,3.13848 -5.7672,11.11974 -5.7672,14.45157 0,1.89107 -1.3428,9.73581 -2.9839,17.43275 -2.1866,10.25495 -3.2568,18.88192 -4.0052,32.28495 -0.5616,10.05978 -1.4573,21.6655 -1.9902,25.7905 -1.9589,15.16105 -1.9052,15.84275 1.5363,19.49178 4.6759,4.95791 9.3357,12.39584 10.5191,16.79067 2.1067,7.82378 -1.6833,17.76478 -11.985,31.43622 -8.0164,10.63852 -8.7803,11.22909 -10.0851,7.79715 z m 10.744,-27.52768 c 1.2375,-2.42655 2.25,-6.19949 2.25,-8.38431 0,-3.8784 -3.4216,-12.60383 -4.9425,-12.60383 -0.8435,0 -2.0575,12.23343 -2.0575,20.73421 0,6.59102 1.4779,6.67003 4.75,0.25393 z m 17.5424,-159.48814 c 3.9668,-7.58769 8.0466,-19.17429 7.3712,-20.93429 -1.7014,-4.43388 -8.6586,2.19416 -8.6712,8.26102 0,2.0203 -0.9008,6.59827 -1.9924,10.17327 -1.0916,3.575 -1.9882,7.61263 -1.9924,8.97251 -0.01,2.38074 0.042,2.39929 1.3316,0.5 0.7366,-1.08488 2.5155,-4.22251 3.9532,-6.97251 z m -303.1019,166.29638 c -10.0105,-30.24128 -13.6232,-50.49639 -14.8191,-83.08644 -1.1157,-30.40277 1.3985,-55.09282 11.2179,-110.16298 3.5259,-19.77417 6.3943,-36.87417 6.3742,-38 -0.042,-2.34183 -1.1244,-0.18101 -8.9949,17.95304 -2.8645,6.6 -6.236,13.8 -7.4923,16 -1.2563,2.2 -2.5886,6.025 -2.9606,8.5 -2.6079,17.35063 -26.2004,102.98378 -27.7708,100.7989 -0.6665,-0.92731 -0.7638,-0.77553 -0.3401,0.53056 0.7127,2.19728 -0.3107,6.8467 -1.3639,6.19581 -0.6916,-0.42745 -9.0078,16.18124 -9.0678,18.10976 -0.077,2.48205 -14.3959,15.27554 -15.6703,14.00113 -0.3555,-0.35551 -0.203,-5.25658 0.3389,-10.89127 l 0.9853,-10.24489 -3.8135,-4.22766 c -2.0974,-2.32521 -3.8461,-5.02521 -3.8861,-6 -0.6313,-15.42158 -0.47,-49.97602 0.2511,-53.77234 0.5223,-2.75 1.1032,-11.975 1.2908,-20.5 0.1875,-8.525 0.4607,-15.95 0.6071,-16.5 0.1463,-0.55 -0.086,-3.13146 -0.5167,-5.73658 -0.5592,-3.3841 -0.2835,-6.81059 0.9656,-12 1.0999,-4.56938 2.0511,-14.31061 2.5646,-26.26342 0.4489,-10.45 1.5045,-24.175 2.3456,-30.5 0.8412,-6.32499 2.2063,-17.574995 3.0337,-24.999995 1.9937,-17.89193 5.0104,-35.448252 7.99,-46.499996 1.4901,-5.526466 2.525,-12.377047 2.6816,-17.75 0.2081,-7.140034 0.5406,-8.747184 1.8071,-8.734688 3.8376,0.03786 4.5468,1.692963 4.7752,11.143103 0.1628,6.740543 0.605,9.445686 1.6384,10.023989 0.7784,0.435629 1.7447,2.035299 2.1473,3.554824 l 0.732,2.762772 1.1397,-3.264964 c 0.9794,-2.805762 1.1207,-1.821246 1.005,7 -0.1246,9.495023 -0.9375,17.252829 -4.827,46.06425 -0.8018,5.939613 -1.2074,11.452115 -0.9012,12.250005 0.3062,0.79789 0.01,1.45071 -0.6597,1.45071 -0.7966,0 -1.0782,1.18372 -0.816,3.42985 0.234,2.00391 0.01,3.18613 -0.5481,2.84362 -0.5733,-0.35431 -0.6478,0.36575 -0.1883,1.82015 1.293,4.09235 0.3243,41.66493 -1.4413,55.90637 -0.5114,4.125 -1.4035,11.775 -1.9823,17 -0.5789,5.225 -1.9103,16.925 -2.9586,26 -2.263,19.5889 -3.6351,50 -2.2559,50 0.5196,0 2.5961,-6.6375 4.6144,-14.75 11.0411,-44.3801 19.7972,-73.17213 29.8795,-98.25043 4.0906,-10.17476 9.1381,-23.67457 11.2168,-29.99957 4.3762,-13.31636 8.9649,-24.066575 17.8512,-41.820625 3.4904,-6.97365 7.81,-16.054366 9.5989,-20.179366 1.789,-4.125 6.4251,-14.025 10.3025,-22 3.8773,-7.975 9.2182,-19.000001 11.8686,-24.500001 2.6505,-5.4999995 4.6035,-8.8749995 4.3401,-7.49999948 -0.2634,1.37499998 -2.2569,11.73324048 -4.4299,23.01831448 -2.1731,11.285073 -4.1856,22.085073 -4.4724,24 -0.2868,1.914927 -1.6504,8.881686 -3.0303,15.481686 -1.3799,6.599996 -2.7608,15.149996 -3.0688,18.999996 -0.3079,3.85 -1.6233,11.05 -2.9231,16.000003 -2.4766,9.431232 -4.041,19.580892 -5.0865,32.999992 -0.8215,10.54315 -2.5402,21.48738 -7.4597,47.5 -10.4727,55.3763 -12.0367,81.77227 -6.9447,117.20978 1.0834,7.54037 3.2663,18.79037 4.8509,25 4.5934,18.00083 5.8591,19.96947 8.6083,13.38967 4.9141,-11.76108 20.6326,-107.22406 23.9737,-145.59945 0.838,-9.625 3.142,-27.4 5.1199,-39.5 1.978,-12.1 3.8268,-24.33486 4.1086,-27.18857 0.2818,-2.85372 1.0503,-5.39499 1.7077,-5.64728 1.5436,-0.59234 11.8086,1.23922 12.9076,2.30308 0.8291,0.80267 0.038,7.62324 -2.9968,25.84568 -0.8531,5.1221 -1.3335,9.53056 -1.0674,9.79657 0.266,0.26601 0.7792,-0.7748 1.1405,-2.31291 1.1035,-4.69768 8.6616,-30.61705 9.792,-33.58046 2.4015,-6.29532 10.0378,-8.66988 15.0931,-4.69335 2.5438,2.00097 6.6982,11.27687 6.6982,14.95574 0,1.0469 0.4697,2.19376 1.0438,2.54857 1.7066,1.05474 3.9562,-1.56234 3.9562,-4.60246 0,-3.67736 1.9369,-7.88604 3.3753,-7.33409 0.6195,0.23774 1.6978,-0.8587 2.3962,-2.43651 1.0063,-2.27326 1.7706,-2.77304 3.682,-2.40765 3.2445,0.62022 3.8406,2.66893 1.5865,5.45259 -1.6788,2.07317 -1.7233,2.62313 -0.4581,5.65118 1.33,3.18325 1.2304,3.66834 -1.9518,9.50219 -2.0446,3.74828 -3.8218,8.91362 -4.5534,13.2345 -0.66,3.89774 -2.067,8.51252 -3.1267,10.25506 -1.0597,1.74253 -1.9262,4.17847 -1.9254,5.41318 7e-4,1.23472 -0.4009,5.32622 -0.8926,9.09222 -0.4916,3.76601 -0.6665,7.71695 -0.3885,8.77988 0.278,1.06293 -0.2829,3.99675 -1.2464,6.51959 -1.3984,3.66168 -1.6122,6.12679 -1.0597,12.22012 0.3807,4.19822 0.8533,12.22668 1.0503,17.84101 0.3338,9.51175 0.5714,10.51764 3.4833,14.75 1.7188,2.49817 3.8038,4.54212 4.6334,4.54212 2.4108,0 7.2395,-6.01392 8.9404,-11.13498 1.7381,-5.2329 4.4813,-8.48379 4.4196,-5.23746 -0.02,1.02984 -0.7274,4.57244 -1.5728,7.87244 -0.8455,3.3 -1.957,7.99866 -2.47,10.44148 -0.8577,4.08416 -3.1072,7.57728 -6.9216,10.74802 -2.2239,1.84863 -7.0746,1.56239 -10.6695,-0.6296 -3.4235,-2.08744 -11.1403,-12.70207 -12.2494,-16.84919 -0.6132,-2.29273 -1.2321,-1.55642 -6.1316,7.29483 -2.9972,5.41473 -7.2495,11.8341 -9.4495,14.26527 -3.3842,3.73975 -4.7245,4.50182 -8.7055,4.94978 -3.6584,0.41166 -5.5022,0.0594 -8.2861,-1.58315 -2.5624,-1.51186 -3.6845,-1.7607 -3.9459,-0.87504 -2.4196,8.19858 -7.942,45.97186 -7.2502,49.591 0.6834,3.575 -3.705,29.21273 -6.2556,36.54626 -3.925,11.28497 -12.5449,23.40867 -22.6867,31.90804 l -2.13,1.78506 -7.0495,-21.29638 z m 59.6151,-113.54638 c 3.0361,-4.29963 10.8361,-19.17473 13.2404,-25.25 1.1972,-3.025 2.9961,-11.125 3.9976,-18 1.0016,-6.875 2.5687,-15.875 3.4825,-20 1.0894,-4.91721 1.4688,-9.66572 1.1017,-13.78889 -0.4758,-5.34539 -0.2781,-6.53011 1.3179,-7.89667 1.5292,-1.30929 1.6796,-2.04273 0.8103,-3.9507 -0.8088,-1.7751 -0.6925,-3.29765 0.4798,-6.28214 1.2696,-3.23213 1.3765,-5.49462 0.5952,-12.60472 -1.4628,-13.31254 -3.7445,-17.00786 -7.9219,-12.83038 -1.0601,1.06006 -5.9851,13.8108 -10.9654,28.38894 -8.1638,23.89678 -9.2398,27.91996 -11.0892,41.46456 -2.47,18.08859 -3.0881,47.71564 -1.0693,51.25 1.7133,2.9996 3.6637,2.83762 6.0204,-0.5 z m -95.9756,-6.25 c 0.018,-0.91898 -0.3035,-0.72531 -0.83,0.5 -0.4727,1.1 -0.8462,2.9 -0.83,4 0.024,1.60779 0.1864,1.50973 0.83,-0.5 0.4404,-1.375 0.8139,-3.175 0.83,-4 z M 350.31119,39.556999 c -0.2292,-1.5125 -0.4166,-0.275 -0.4166,2.75 0,3.025 0.1874,4.2625 0.4166,2.75 0.2291,-1.5125 0.2291,-3.9875 0,-5.5 z m 351.5337,266.656121 c -2.5215,-0.94326 -2.6828,-1.6376 -1.2534,-5.39723 0.7506,-1.97407 0.6053,-3.37804 -0.5882,-5.6861 -1.2941,-2.50251 -1.3857,-3.85565 -0.4994,-7.37553 1.2327,-4.89561 0.6233,-42.50836 -0.8335,-51.44727 -0.4975,-3.05247 -0.5153,-5.89865 -0.04,-6.39583 0.4709,-0.49271 0.597,-2.19242 0.28,-3.77714 -0.6309,-3.15441 1.4163,-6.2621 4.6889,-7.1179 2.6722,-0.69879 11.134,3.47794 14.0366,6.92839 2.6103,3.10308 3.6348,5.30553 9.4704,20.36038 2.0249,5.22384 4.973,11.41134 6.5513,13.75 1.5784,2.33865 2.3723,4.2521 1.7643,4.2521 -0.7357,0 -0.9115,1.63744 -0.5257,4.89524 0.5786,4.88549 0.5734,4.89622 -2.6107,5.38896 -2.6202,0.40548 -4.1429,-0.24608 -8.5186,-3.64523 -2.9305,-2.27643 -6.3669,-4.92675 -7.6364,-5.8896 l -2.3082,-1.75062 -0.6778,4.51998 c -0.3728,2.48599 -1.0591,4.28436 -1.5251,3.99638 -1.2046,-0.74449 -2.7883,8.65316 -3.5219,20.89858 -0.2278,3.80252 -0.8422,7.17822 -1.3654,7.50155 -0.5231,0.32333 -1.3305,1.99293 -1.7941,3.71023 -0.7336,2.71699 -1.1351,3.01308 -3.093,2.28066 z m 21.75,-45.73182 c 0,-0.45412 -1.125,-1.88256 -2.5,-3.17431 -1.375,-1.29175 -2.5,-2.92401 -2.5,-3.62726 0,-2.4591 -2.3338,-6.37274 -3.8003,-6.37274 -0.8136,0 -2.077,-0.7875 -2.8076,-1.75 -1.7411,-2.29359 -1.8438,-0.1413 -0.2091,4.3796 0.8856,2.4489 0.8997,3.89359 0.056,5.74506 -1.4545,3.19237 0.5125,5.04745 4.47,4.21557 1.535,-0.32268 3.466,-0.14437 4.291,0.39623 1.8449,1.20893 3,1.28126 3,0.18785 z m -78.9995,32.70224 c -4.2924,-1.71164 -6.6969,-4.77554 -10.5711,-13.47007 -3.027,-6.79342 -3.5524,-8.84401 -2.7308,-10.65907 0.672,-1.48481 0.6841,-2.98866 0.036,-4.4319 -1.3096,-2.91465 -0.065,-9.31551 1.8109,-9.31551 0.8001,0 1.4547,-0.675 1.4547,-1.5 0,-0.825 0.3925,-1.5 0.8722,-1.5 0.4797,0 1.1522,-1.75088 1.4944,-3.89085 0.3422,-2.13996 1.2997,-4.15084 2.1278,-4.46861 0.918,-0.35227 1.5056,-1.85976 1.5056,-3.8624 0,-2.39576 0.8604,-4.09561 3.1794,-6.28139 3.2604,-3.073 5.7078,-3.38289 7.1203,-0.90157 0.4398,0.77265 1.972,1.40482 3.4048,1.40482 6.0762,0 14.9783,15.50654 13.7781,24 -0.2721,1.925 -0.6752,7.67778 -0.8959,12.78395 -0.4276,9.89641 -0.9742,11.28607 -6.7305,17.11382 -5.3764,5.44302 -10.5877,7.07941 -15.8557,4.97878 z m 9.5092,-18.90195 c 4.0877,-10.69741 4.3564,-17.29454 1.0083,-24.75515 -1.5026,-3.34816 -3.3584,-6.32798 -4.1242,-6.62182 -2.0892,-0.80171 -6.044,7.93223 -6.2951,13.90237 -0.1156,2.75 -0.3657,7.87284 -0.5557,11.38409 -0.3494,6.45699 0.955,12.54422 2.4853,11.59841 0.4584,-0.28332 1.1162,-0.0578 1.4616,0.50119 1.5441,2.49834 3.5243,0.52167 6.0198,-6.00909 z m -127.8275,-9.71749 c -0.937,-9.21641 -1.6988,-18.21961 -1.6929,-20.00711 0.01,-1.7875 -0.4479,-3.25 -1.0083,-3.25 -0.5605,0 -0.781,-1.0125 -0.4899,-2.25 0.6137,-2.60961 1.3059,-15.37343 1.9114,-35.25 0.3082,-10.11539 0.8629,-14.83242 1.9991,-17 0.8649,-1.65 1.3162,-3.80909 1.0029,-4.79799 -0.3134,-0.98889 -0.1053,-2.35754 0.4622,-3.04143 0.6211,-0.74828 0.8263,-4.41272 0.5154,-9.20201 -0.2842,-4.37722 -0.4865,-8.85857 -0.4497,-9.95857 0.037,-1.1 0.2231,-10.325 0.4138,-20.5 0.5135,-27.39814 4.4339,-41.376102 13.8702,-49.453255 18.9368,-16.20915 36.1903,-5.18572 37.4908,23.953255 1.004,22.4948 -8.2256,43.17771 -29.1212,65.25809 l -8.086,8.54454 0.3276,13.65496 c 0.242,10.08691 -0.085,15.24577 -1.25,19.74303 -0.8677,3.34844 -1.5776,8.09346 -1.5776,10.5445 0,4.22074 -1.0558,8.78813 -3.0641,13.25488 -0.4945,1.1 -2.5265,9.425 -4.5156,18.5 -1.989,9.075 -3.9354,16.8407 -4.3254,17.25711 -0.39,0.41641 -1.4757,-6.78359 -2.4127,-16 z m 27.1006,-100.49448 c 3.858,-7.84444 8.2977,-18.53763 9.8659,-23.76263 2.4763,-8.25065 2.8513,-11.14388 2.8513,-22 0,-10.51815 -0.3171,-13.12555 -2,-16.44553 -4.2667,-8.417332 -11.3957,-6.275732 -16.6769,5.00985 -3.2571,6.96027 -4.8756,18.90734 -3.0786,22.72436 0.5726,1.21623 1.5664,5.81132 2.2085,10.21132 1.1107,7.61165 0.5317,20.44076 -1.5973,35.39239 -0.4094,2.87492 -0.2735,4.17482 0.3935,3.76263 0.5604,-0.34636 4.1755,-7.04794 8.0336,-14.89239 z m 65.2957,38.64281 c 0.7278,-0.87702 3.5177,-2.65316 6.1997,-3.94699 6.028,-2.908 14.8407,-12.64781 23.9961,-26.52055 5.3739,-8.14278 6.7965,-12.11405 6.1363,-17.12924 -0.6311,-4.79423 2.5994,-13.08739 9.4248,-24.19484 2.6782,-4.35835 3.7625,-7.40822 4.1776,-11.75 0.3377,-3.53202 0.1723,-5.86382 -0.4161,-5.86382 -2.0219,0 -14.5305,-8.24975 -16.0692,-10.59805 -1.7035,-2.59988 -2.9999,-8.920732 -3.9308,-19.165825 -0.4655,-5.12358 -0.2531,-6.58119 1.167,-8.00694 1.076,-1.08033 1.7542,-3.34499 1.7838,-5.95631 0.034,-2.99986 0.7238,-4.93294 2.3953,-6.712237 1.2913,-1.374444 2.717,-2.270755 3.1684,-1.991803 1.0698,0.661174 6.6852,-4.35253 7.4011,-6.608037 0.3047,-0.960133 1.9062,-2.30581 3.559,-2.990393 1.6527,-0.684583 3.4481,-2.072666 3.9896,-3.084628 1.659,-3.099777 4.5587,-4.123148 6.4171,-2.264738 0.8894,0.889386 1.8966,1.337512 2.2383,0.995836 0.3416,-0.341676 1.4198,0.101517 2.3959,0.984874 1.4469,1.309418 1.556,1.956356 0.5906,3.502182 -0.6512,1.042843 -1.9758,1.896078 -2.9435,1.896078 -1.0928,0 -1.7595,0.757811 -1.7595,2 0,1.1 -0.4465,2 -0.9923,2 -1.9836,0 -6.5646,6.334686 -9.007,12.455016 -1.3754,3.44652 -3.0067,6.89158 -3.6251,7.65569 -0.6184,0.76411 -1.3387,2.73929 -1.6007,4.38929 -0.262,1.65 -0.5968,3.45 -0.744,4 -0.7269,2.71539 0.091,7.500003 1.282,7.500003 0.7221,0 2.6063,1.35 4.1871,3 1.5808,1.65 3.6089,3 4.507,3 2.7304,0 7.719,-5.25783 9.4985,-10.011083 0.9243,-2.46891 2.0615,-5.38892 2.5273,-6.48892 1.4184,-3.35043 2.2483,-26.677776 1.0594,-29.779843 -0.9715,-2.535001 -0.8268,-2.870539 1.6429,-3.809522 1.8231,-0.693142 3.428,-0.701703 4.9106,-0.02619 2.6112,1.189738 4.2424,-0.261451 4.5562,-4.053475 0.1953,-2.358998 0.626,-2.528151 4.8749,-1.914298 0.3173,0.04583 0.3831,1.403165 0.1464,3.016294 -0.2422,1.650087 0.2235,3.86672 1.0648,5.067761 1.3008,1.857276 1.3159,2.808493 0.1155,7.317039 -0.7589,2.850232 -1.3851,7.304014 -1.3916,9.897294 -0.01,2.59328 -0.6917,6.71726 -1.5225,9.1644 -0.8308,2.44715 -1.6907,6.9977 -1.9107,10.11236 -0.2201,3.11465 -0.6343,5.897163 -0.9205,6.183353 -0.2862,0.2862 -0.2637,1.18941 0.05,2.00714 0.3138,0.81773 0.01,3.84087 -0.6845,6.718082 -0.981,4.08932 -1.0103,8.15412 -0.1342,18.62063 0.6164,7.36414 1.5353,13.80398 2.0421,14.31075 0.5619,0.56186 4.2418,-0.77883 9.4308,-3.43588 8.3599,-4.28074 11.5773,-4.69688 8.298,-1.07329 -0.9133,1.00918 -1.6606,2.27155 -1.6606,2.80527 0,0.53372 -2.048,3.28351 -4.5513,6.11064 -5.6175,6.34447 -9.7732,7.98839 -14.841,5.87091 -4.7936,-2.0029 -7.2562,-6.41622 -8.0618,-14.44804 -1.16,-11.5644 -1.9668,-12.52351 -4.9634,-5.89992 -1.0547,2.33119 -2.4942,5.49911 -3.199,7.03981 -0.7047,1.5407 -1.0554,3.3902 -0.7791,4.10998 0.2762,0.71979 -0.58,2.60921 -1.9025,4.19872 -3.6047,4.33215 -4.7019,6.8759 -4.7019,10.90085 0,3.59125 -5.802,18.62133 -9.0674,23.48917 -0.9224,1.375 -2.8778,4.63629 -4.3454,7.24732 -3.6112,6.42488 -12.7055,13.83171 -19.595,15.95919 -3.0207,0.93279 -8.4489,2.61792 -12.0627,3.74473 -8.2089,2.55964 -9.6684,2.64408 -7.851,0.4542 z m -23.0531,-12.38 c -1.086,-1.08601 -2.2794,-3.22351 -2.6521,-4.75 -0.3726,-1.52649 -1.7762,-4.09751 -3.119,-5.71338 -2.3647,-2.84559 -2.4307,-3.35757 -2.0979,-16.2872 0.2708,-10.51869 0.6617,-13.54588 1.8436,-14.27652 1.615,-0.99835 1.754,-1.83908 2.5625,-15.49834 0.293,-4.95 0.8213,-9.675 1.174,-10.5 0.3527,-0.825 0.6765,-6.72753 0.7194,-13.11673 0.043,-6.3892 0.5399,-12.239202 1.1045,-12.999992 0.5645,-0.7608 1.1389,-3.63327 1.2763,-6.383273 0.1374,-2.75 0.7215,-6.77594 1.298,-8.94653 0.8925,-3.36013 0.7912,-4.13446 -0.6814,-5.21125 -1.1355,-0.83033 -2.3143,-0.95179 -3.432,-0.35361 -0.9363,0.50111 -2.5617,0.89315 -3.6119,0.8712 -1.0502,-0.022 -4.0469,0.65408 -6.6594,1.5023 -5.8546,1.90088 -6.7679,-0.0719 -1.2646,-2.73174 1.917,-0.92652 4.9545,-2.3847 6.75,-3.2404 1.8259,-0.87016 5.0274,-1.4091 7.2646,-1.22289 3.4616,0.28811 4.2175,0.80401 5.616,3.83292 1.3888,3.00803 1.4749,5.0283 0.6127,14.37258 -0.754,8.171803 -0.69,12.532545 0.2577,17.555075 0.6934,3.67538 0.9679,8.68272 0.6099,11.12742 -0.6292,4.29607 -2.4064,48.10523 -1.9787,48.77594 0.1161,0.18206 1.1303,-0.16091 2.2537,-0.76215 1.2338,-0.6603 2.3093,-2.57328 2.7161,-4.83102 0.3703,-2.05582 1.0138,-4.18785 1.4299,-4.73785 0.4161,-0.55 1.0778,-3.025 1.4704,-5.5 0.3926,-2.475 2.6486,-9.48596 5.0132,-15.57991 3.7461,-9.65395 4.4492,-12.73602 5.4627,-23.94811 0.6398,-7.07749 1.4058,-13.260712 1.7023,-13.740472 0.6497,-1.05115 2.8068,-11.363813 3.7827,-18.083563 l 0.7046,-4.85206 4.6734,0.68433 c 2.5704,0.37638 5.0777,1.07409 5.5718,1.55047 0.5304,0.51132 0.4324,3.18669 -0.2392,6.53071 -0.6257,3.11551 -0.8233,6.17307 -0.4392,6.79458 1.5276,2.47176 -0.036,15.830735 -3.352,28.644025 l -3.494,13.5 0.313,24.68233 c 0.1899,14.97406 -0.04,24.02062 -0.585,23 -0.4939,-0.92528 -1.7094,-2.4669 -2.7012,-3.42582 -2.0426,-1.97493 -3.6823,-7.00845 -4.5804,-14.06079 -0.3365,-2.64235 -0.9757,-4.44046 -1.4203,-3.99579 -0.4447,0.44467 -2.3948,5.19063 -4.3336,10.54659 -6.3093,17.42981 -9.8865,22.75348 -15.289,22.75348 -1.2526,0 -3.166,-0.88855 -4.2521,-1.97456 z"
     style="fill:#1e1e1e" />
</svg>
