<?xml version="1.0" encoding="UTF-8" standalone="no"?>
<svg
   xmlns:dc="http://purl.org/dc/elements/1.1/"
   xmlns:cc="http://creativecommons.org/ns#"
   xmlns:rdf="http://www.w3.org/1999/02/22-rdf-syntax-ns#"
   xmlns:svg="http://www.w3.org/2000/svg"
   xmlns="http://www.w3.org/2000/svg"
   height="43.5"
   width="338.20001"
   xml:space="preserve"
   viewBox="0 0 338.20001 43.5"
   y="0px"
   x="0px"
   id="Слой_1"
   version="1.1"><metadata
     id="metadata95"><rdf:RDF><cc:Work
         rdf:about=""><dc:format>image/svg+xml</dc:format><dc:type
           rdf:resource="http://purl.org/dc/dcmitype/StillImage" /><dc:title></dc:title></cc:Work></rdf:RDF></metadata><defs
     id="defs93" /><style
     id="style3"
     type="text/css">
	.st0{fill:#36A9E1;}
	.st1{fill:#EDEDED;}
	.st2{fill:#FFFFFF;}
</style><path
     style="fill:#36a9e1"
     id="path5"
     d="m 74,37 c -2.4,2.4 -5.8,3.8 -9.8,3.8 -4,0 -7.4,-1.5 -9.8,-3.8 -3.7,-3.7 -4,-6.8 -4,-16.6 0,-9.8 0.3,-12.9 4,-16.6 2.4,-2.4 5.8,-3.8 9.8,-3.8 4,0 7.4,1.5 9.8,3.8 3.7,3.7 4,6.8 4,16.6 0,9.7 -0.3,12.8 -4,16.6 z M 71.8,5.8 C 69.7,3.7 67.1,2.7 64.2,2.7 c -2.9,0 -5.5,1 -7.6,3.1 -2.9,2.9 -3.1,6.1 -3.1,14.6 0,8.5 0.2,11.7 3.1,14.6 2.1,2.1 4.7,3.1 7.6,3.1 2.9,0 5.5,-1 7.6,-3.1 2.9,-2.9 3.1,-6.1 3.1,-14.6 0,-8.5 -0.2,-11.8 -3.1,-14.6 z"
     class="st0" /><path
     style="fill:#ededed"
     id="path7"
     d="m 116.4,43.5 0,-2.1 29,0 0,2.1 -29,0 z"
     class="st1" /><path
     style="fill:#ededed"
     id="path9"
     d="m 175.1,3.8 c -2.4,-2.4 -5.8,-3.7 -10,-3.7 l -13.5,0 0,2.9 c 4.2,0 8.5,0 12.7,-0.1 3.2,0 6.3,0.7 8.6,3.1 3,3.2 3,9 3,14.3 0,5.3 0,11.1 -3,14.3 -2.3,2.4 -5.4,3.1 -8.6,3.1 -4.2,0 -8.5,0 -12.7,0.1 l 0,2.5 13.5,0 c 4.2,0 7.6,-1.2 10,-3.7 3.8,-3.8 3.9,-10.4 3.9,-16.4 0,-6 -0.1,-12.6 -3.9,-16.4 z"
     class="st1" /><path
     style="fill:#ededed"
     id="path11"
     d="m 189.8,37.7 c 8.1,0 16.2,0 24.4,0 l 0,2.7 -24.4,0"
     class="st1" /><path
     style="fill:#ededed"
     id="path13"
     d="m 189.8,18.9 c 7.1,0 14.1,0 21.2,0 l 0,2.7 c -7.1,0 -14.1,0 -21.2,0"
     class="st1" /><path
     style="fill:#ededed"
     id="path15"
     d="m 189.8,0.3 24.4,0 0,2.7 C 206.1,3 198,3 189.8,3"
     class="st1" /><path
     style="fill:#ededed"
     id="path17"
     d="m 256.7,40.5 0,-40.2 3,0 0,40.2 -3,0 z"
     class="st1" /><rect
     style="fill:#ffffff"
     id="rect19"
     height="2.4000001"
     width="5.0999999"
     class="st2"
     y="61.899994"
     x="390.19998" /><g
     transform="translate(-103.1,-168.5)"
     id="g45"><polygon
       style="fill:#36a9e1"
       id="polygon47"
       points="197.5,171.5 216.3,171.5 216.3,168.8 191.9,168.8 191.9,171.5 197.5,171.5 "
       class="st0" /><g
       id="g49"><polygon
         style="fill:#36a9e1"
         id="polygon51"
         points="191.9,190.1 195,190.1 195.8,190.1 213.1,190.1 213.1,187.4 197.5,187.4 195,187.4 191.9,187.4 "
         class="st0" /><polygon
         style="fill:#36a9e1"
         id="polygon53"
         points="191.9,209 216.3,209 216.3,206.2 195,206.2 195,206.2 191.9,206.2 "
         class="st0" /></g></g><g
     transform="translate(-103.1,-168.5)"
     id="g55"><polygon
       style="fill:#ededed"
       id="polygon57"
       points="298.5,171.2 317.3,171.2 317.3,168.5 292.9,168.5 292.9,171.2 298.5,171.2 "
       class="st1" /><g
       id="g59"><polygon
         style="fill:#ededed"
         id="polygon61"
         points="292.9,189.7 296,189.7 296.9,189.7 314.1,189.7 314.1,187 298.5,187 296,187 292.9,187 "
         class="st1" /><polygon
         style="fill:#ededed"
         id="polygon63"
         points="292.9,208.6 317.3,208.6 317.3,205.9 296,205.9 296,205.9 292.9,205.9 "
         class="st1" /></g></g><polygon
     transform="translate(-103.1,-168.5)"
     style="fill:#36a9e1"
     id="polygon65"
     points="112.9,195.9 106.3,168.8 103.1,168.8 113.1,209 116,209 "
     class="st0" /><polygon
     transform="translate(-103.1,-168.5)"
     style="fill:#36a9e1"
     id="polygon67"
     points="138.7,195.2 140.3,201.1 148.3,168.8 145.1,168.8 "
     class="st0" /><polygon
     transform="translate(-103.1,-168.5)"
     style="fill:#36a9e1"
     id="polygon69"
     points="125.7,174 135.2,209 138,209 136.7,203.7 136.7,203.7 127.3,168.8 124.1,168.8 117,195.3 118.4,201.1 "
     class="st0" /><g
     transform="translate(-103.1,-168.5)"
     id="g71"><path
       style="fill:#ededed"
       id="path73"
       d="m 346.8,190.5 c -1.9,-1.6 -3.4,-2.2 -7.2,-2.8 L 335,187 c -2.3,-0.3 -4.3,-1.1 -5.8,-2.3 -0.6,-0.5 -1.1,-1.2 -1.4,-1.9 l -3.2,0 c 0.5,1.7 1.4,3.1 2.7,4.1 1.7,1.5 4.1,2.4 7.2,2.9 l 4.7,0.7 c 3.2,0.5 4.4,0.9 5.8,2.1 0.7,0.6 1.2,1.4 1.6,2.2 l 3.2,0 c -0.6,-1.7 -1.6,-3.2 -3,-4.3 z"
       class="st1" /><path
       style="fill:#ededed"
       id="path75"
       d="m 346.5,201.9 c -1.4,3 -4.8,4.7 -9.6,4.7 -4.8,0 -7.8,-1.1 -11.4,-4.7 l -2.1,2.1 c 3.7,3.7 7.4,5.3 13.4,5.3 6.8,0 11.4,-2.8 12.9,-7.4 l -3.2,0 z"
       class="st1" /><path
       style="fill:#ededed"
       id="path77"
       d="m 327.9,175.8 c 1.3,-3 4.3,-4.7 8.6,-4.7 4.7,0 7.4,1.5 9.8,3.7 l 2,-2 c -3.4,-3 -6.6,-4.3 -11.6,-4.3 -6.2,0 -10.4,2.8 -11.9,7.3 l 3.1,0 z"
       class="st1" /></g><g
     transform="translate(-103.1,-168.5)"
     id="g79"><path
       style="fill:#ededed"
       id="path81"
       d="m 386.4,192.4 c 3.2,0 6.4,0 9.6,0 l 4.3,0 c 0,0 0,0 0,-0.1 0,-1 0,-2 -0.1,-2.7 l -13.8,0 0,2.8 z"
       class="st1" /><path
       style="fill:#ededed"
       id="path83"
       d="m 396.7,199.4 c -0.4,1.6 -1,3.4 -1.9,4.6 -2.1,2.5 -5.2,3.9 -8.3,3.9 -2.9,0 -5.5,-1 -7.6,-3.1 -2.9,-2.9 -3.1,-6.1 -3.1,-14.6 0,-8.5 0.2,-11.7 3.1,-14.6 2.1,-2.1 4.7,-3.1 7.6,-3.1 5.4,0 9.5,3.4 10.7,9 l 3,0 c -1.2,-7 -6.7,-11.7 -13.7,-11.7 -4,0 -7.4,1.5 -9.8,3.8 -3.7,3.7 -4,6.8 -4,16.6 0,9.8 0.3,12.9 4,16.6 2.4,2.4 5.8,3.8 9.8,3.8 4.1,0 8,-1.7 10.5,-4.6 1.2,-1.3 1.9,-2.6 2,-3 0.3,-0.7 0.7,-1.6 1,-3.6 l -3.3,0 z"
       class="st1" /></g><g
     transform="translate(-103.1,-168.5)"
     id="g85"><polygon
       style="fill:#ededed"
       id="polygon87"
       points="415.1,168.8 412,168.8 412,209 415.1,209 415.1,174 434,202.6 434,197.3 "
       class="st1" /><polygon
       style="fill:#ededed"
       id="polygon89"
       points="438.2,203.6 438.2,203.6 438.2,208.9 438.2,209 441.3,209 441.3,168.8 438.2,168.8 "
       class="st1" /></g></svg>