<?xml version="1.0" encoding="UTF-8" standalone="no"?>
<!-- Generator: Adobe Illustrator 19.2.1, SVG Export Plug-In . SVG Version: 6.00 Build 0)  -->

<svg
   xmlns:dc="http://purl.org/dc/elements/1.1/"
   xmlns:cc="http://creativecommons.org/ns#"
   xmlns:rdf="http://www.w3.org/1999/02/22-rdf-syntax-ns#"
   xmlns:svg="http://www.w3.org/2000/svg"
   xmlns="http://www.w3.org/2000/svg"
   xmlns:sodipodi="http://sodipodi.sourceforge.net/DTD/sodipodi-0.dtd"
   xmlns:inkscape="http://www.inkscape.org/namespaces/inkscape"
   version="1.1"
   id="Слой_1"
   x="0px"
   y="0px"
   viewBox="0 0 370.20001 42.099998"
   xml:space="preserve"
   inkscape:version="0.91 r13725"
   sodipodi:docname="logo4.svg"
   width="370.20001"
   height="42.099998"><metadata
     id="metadata95"><rdf:RDF><cc:Work
         rdf:about=""><dc:format>image/svg+xml</dc:format><dc:type
           rdf:resource="http://purl.org/dc/dcmitype/StillImage" /><dc:title></dc:title></cc:Work></rdf:RDF></metadata><defs
     id="defs93" /><sodipodi:namedview
     pagecolor="#ffffff"
     bordercolor="#666666"
     borderopacity="1"
     objecttolerance="10"
     gridtolerance="10"
     guidetolerance="10"
     inkscape:pageopacity="0"
     inkscape:pageshadow="2"
     inkscape:window-width="1920"
     inkscape:window-height="1017"
     id="namedview91"
     showgrid="false"
     fit-margin-top="0"
     fit-margin-left="0"
     fit-margin-right="0"
     fit-margin-bottom="0"
     inkscape:zoom="1.888"
     inkscape:cx="129.52502"
     inkscape:cy="-3.7919663"
     inkscape:window-x="-8"
     inkscape:window-y="-8"
     inkscape:window-maximized="1"
     inkscape:current-layer="Слой_1" /><style
     type="text/css"
     id="style3">
	.st0{fill:#36A9E1;}
	.st1{fill:#EDEDED;}
	.st2{fill:#FFFFFF;}
</style><path
     class="st0"
     d="m 80,37 c -2.4,2.4 -5.8,3.8 -9.8,3.8 -4,0 -7.4,-1.5 -9.8,-3.8 -3.7,-3.7 -4,-6.8 -4,-16.6 0,-9.8 0.3,-12.9 4,-16.6 2.4,-2.4 5.8,-3.8 9.8,-3.8 4,0 7.4,1.5 9.8,3.8 3.7,3.7 4,6.8 4,16.6 0,9.7 -0.3,12.8 -4,16.6 z M 77.8,5.8 C 75.7,3.7 73.1,2.7 70.2,2.7 c -2.9,0 -5.5,1 -7.6,3.1 -2.9,2.9 -3.1,6.1 -3.1,14.6 0,8.5 0.2,11.7 3.1,14.6 2.1,2.1 4.7,3.1 7.6,3.1 2.9,0 5.5,-1 7.6,-3.1 2.9,-2.9 3.1,-6.1 3.1,-14.6 0,-8.5 -0.2,-11.8 -3.1,-14.6 z"
     id="path5"
     inkscape:connector-curvature="0"
     style="fill:#36a9e1" /><path
     class="st1"
     d="m 187.1,3.8 c -2.4,-2.4 -5.8,-3.7 -10,-3.7 l -13.5,0 0,2.9 c 4.2,0 8.5,0 12.7,-0.1 3.2,0 6.3,0.7 8.6,3.1 3,3.2 3,9 3,14.3 0,5.3 0,11.1 -3,14.3 -2.3,2.4 -5.4,3.1 -8.6,3.1 -4.2,0 -8.5,0 -12.7,0.1 l 0,2.5 13.5,0 c 4.2,0 7.6,-1.2 10,-3.7 3.8,-3.8 3.9,-10.4 3.9,-16.4 0,-6 -0.1,-12.6 -3.9,-16.4 z"
     id="path9"
     inkscape:connector-curvature="0"
     style="fill:#ededed" /><path
     class="st1"
     d="m 205.8,37.7 c 8.1,0 16.2,0 24.4,0 l 0,2.7 -24.4,0"
     id="path11"
     inkscape:connector-curvature="0"
     style="fill:#ededed" /><path
     class="st1"
     d="m 205.8,18.9 c 7.1,0 14.1,0 21.2,0 l 0,2.7 c -7.1,0 -14.1,0 -21.2,0"
     id="path13"
     inkscape:connector-curvature="0"
     style="fill:#ededed" /><path
     class="st1"
     d="m 205.8,0.3 24.4,0 0,2.7 C 222.1,3 214,3 205.8,3"
     id="path15"
     inkscape:connector-curvature="0"
     style="fill:#ededed" /><path
     class="st1"
     d="m 280.7,40.5 0,-40.2 3,0 0,40.2 -3,0 z"
     id="path17"
     inkscape:connector-curvature="0"
     style="fill:#ededed" /><g
     id="g45"
     transform="translate(-93.1,-168.5)"><polygon
       class="st0"
       points="197.5,171.5 197.5,171.5 216.3,171.5 216.3,168.8 191.9,168.8 191.9,171.5 "
       id="polygon47"
       style="fill:#36a9e1" /><g
       id="g49"><polygon
         class="st0"
         points="213.1,190.1 213.1,187.4 197.5,187.4 195,187.4 191.9,187.4 191.9,190.1 195,190.1 195.8,190.1 "
         id="polygon51"
         style="fill:#36a9e1" /><polygon
         class="st0"
         points="191.9,206.2 191.9,209 216.3,209 216.3,206.2 195,206.2 195,206.2 "
         id="polygon53"
         style="fill:#36a9e1" /></g></g><g
     id="g55"
     transform="translate(-87.1,-168.5)"><polygon
       class="st1"
       points="317.3,168.5 292.9,168.5 292.9,171.2 298.5,171.2 298.5,171.2 317.3,171.2 "
       id="polygon57"
       style="fill:#ededed" /><g
       id="g59"><polygon
         class="st1"
         points="296,187 292.9,187 292.9,189.7 296,189.7 296.9,189.7 314.1,189.7 314.1,187 298.5,187 "
         id="polygon61"
         style="fill:#ededed" /><polygon
         class="st1"
         points="317.3,205.9 296,205.9 296,205.9 292.9,205.9 292.9,208.6 317.3,208.6 "
         id="polygon63"
         style="fill:#ededed" /></g></g><polygon
     class="st0"
     points="106.3,168.8 103.1,168.8 113.1,209 116,209 112.9,195.9 "
     id="polygon65"
     style="fill:#36a9e1"
     transform="translate(-103.1,-168.5)" /><polygon
     class="st0"
     points="148.3,168.8 145.1,168.8 138.7,195.2 140.3,201.1 "
     id="polygon67"
     style="fill:#36a9e1"
     transform="translate(-103.1,-168.5)" /><polygon
     class="st0"
     points="124.1,168.8 117,195.3 118.4,201.1 125.7,174 135.2,209 138,209 136.7,203.7 136.7,203.7 127.3,168.8 "
     id="polygon69"
     style="fill:#36a9e1"
     transform="translate(-103.1,-168.5)" /><g
     id="g71"
     transform="translate(-83.1,-168.5)"><path
       class="st1"
       d="m 346.8,190.5 c -1.9,-1.6 -3.4,-2.2 -7.2,-2.8 L 335,187 c -2.3,-0.3 -4.3,-1.1 -5.8,-2.3 -0.6,-0.5 -1.1,-1.2 -1.4,-1.9 l -3.2,0 c 0.5,1.7 1.4,3.1 2.7,4.1 1.7,1.5 4.1,2.4 7.2,2.9 l 4.7,0.7 c 3.2,0.5 4.4,0.9 5.8,2.1 0.7,0.6 1.2,1.4 1.6,2.2 l 3.2,0 c -0.6,-1.7 -1.6,-3.2 -3,-4.3 z"
       id="path73"
       inkscape:connector-curvature="0"
       style="fill:#ededed" /><path
       class="st1"
       d="m 346.5,201.9 c -1.4,3 -4.8,4.7 -9.6,4.7 -4.8,0 -7.8,-1.1 -11.4,-4.7 l -2.1,2.1 c 3.7,3.7 7.4,5.3 13.4,5.3 6.8,0 11.4,-2.8 12.9,-7.4 l -3.2,0 z"
       id="path75"
       inkscape:connector-curvature="0"
       style="fill:#ededed" /><path
       class="st1"
       d="m 327.9,175.8 c 1.3,-3 4.3,-4.7 8.6,-4.7 4.7,0 7.4,1.5 9.8,3.7 l 2,-2 c -3.4,-3 -6.6,-4.3 -11.6,-4.3 -6.2,0 -10.4,2.8 -11.9,7.3 l 3.1,0 z"
       id="path77"
       inkscape:connector-curvature="0"
       style="fill:#ededed" /></g><g
     id="g79"
     transform="translate(-75.1,-168.5)"><path
       class="st1"
       d="m 386.4,192.4 c 3.2,0 6.4,0 9.6,0 l 4.3,0 c 0,0 0,0 0,-0.1 0,-1 0,-2 -0.1,-2.7 l -13.8,0 0,2.8 z"
       id="path81"
       inkscape:connector-curvature="0"
       style="fill:#ededed" /><path
       class="st1"
       d="m 396.7,199.4 c -0.4,1.6 -1,3.4 -1.9,4.6 -2.1,2.5 -5.2,3.9 -8.3,3.9 -2.9,0 -5.5,-1 -7.6,-3.1 -2.9,-2.9 -3.1,-6.1 -3.1,-14.6 0,-8.5 0.2,-11.7 3.1,-14.6 2.1,-2.1 4.7,-3.1 7.6,-3.1 5.4,0 9.5,3.4 10.7,9 l 3,0 c -1.2,-7 -6.7,-11.7 -13.7,-11.7 -4,0 -7.4,1.5 -9.8,3.8 -3.7,3.7 -4,6.8 -4,16.6 0,9.8 0.3,12.9 4,16.6 2.4,2.4 5.8,3.8 9.8,3.8 4.1,0 8,-1.7 10.5,-4.6 1.2,-1.3 1.9,-2.6 2,-3 0.3,-0.7 0.7,-1.6 1,-3.6 l -3.3,0 z"
       id="path83"
       inkscape:connector-curvature="0"
       style="fill:#ededed" /></g><g
     id="g85"
     transform="translate(-71.1,-168.5)"><polygon
       class="st1"
       points="412,168.8 412,209 415.1,209 415.1,174 434,202.6 434,197.3 415.1,168.8 "
       id="polygon87"
       style="fill:#ededed" /><polygon
       class="st1"
       points="438.2,203.6 438.2,208.9 438.2,209 441.3,209 441.3,168.8 438.2,168.8 438.2,203.6 "
       id="polygon89"
       style="fill:#ededed" /></g></svg>